<svg width="150" height="169" viewBox="0 0 150 169" fill="none" xmlns="http://www.w3.org/2000/svg">
<path d="M136.885 61.4464C120.694 43.7838 86.841 45.2557 78.0097 52.6151C132.469 71.7496 126.582 99.7154 128.054 105.603C129.231 110.313 140.953 104.478 144.244 101.187C151.604 93.8278 154.481 80.6421 136.885 61.4464Z" fill="#0E2A4F"/>
<path d="M124.304 128.743C132.16 106.108 114.79 77.0132 104.119 72.7356C113.139 129.75 85.7319 137.848 81.2494 141.939C77.6634 145.211 88.3642 152.757 92.8235 154.091C102.795 157.073 115.765 153.344 124.304 128.743Z" fill="#0E2A4F"/>
<path d="M61.1871 149.981C84.5126 144.501 99.7913 114.256 97.6933 102.953C54.3615 141.089 32.8515 122.272 26.9966 120.676C22.3127 119.398 21.6664 132.476 22.9266 136.957C25.7446 146.976 35.8369 155.936 61.1871 149.981Z" fill="#0E2A4F"/>
<path d="M13.4788 104.891C29.809 122.425 63.6496 120.685 72.4222 113.255C17.8126 94.5535 23.4781 66.5419 21.9596 60.6663C20.7448 55.9657 9.06944 61.8929 5.80442 65.2102C-1.4964 72.6277 -4.26896 85.8358 13.4788 104.891Z" fill="#0E2A4F"/>
<path d="M24.6985 40.8192C18.1892 63.8786 37.2431 91.8993 48.1468 95.5409C35.7841 39.1571 62.667 29.4588 66.9007 25.1109C70.2878 21.6325 59.1611 14.7302 54.6309 13.6615C44.5012 11.2718 31.7728 15.7583 24.6985 40.8192Z" fill="#0E2A4F"/>
<path d="M86.5915 18.3651C63.1967 23.5409 47.5261 53.5849 49.4769 64.914C93.3009 27.3449 114.564 46.4396 120.398 48.1123C125.065 49.4505 125.881 36.3822 124.679 31.8856C121.992 21.8308 112.017 12.74 86.5915 18.3651Z" fill="#0E2A4F"/>
<circle cx="75.066" cy="83.5247" r="13.2469" fill="#0E2A4F"/>
</svg>
