<svg id="visual" viewBox="0 0 900 450" width="900" height="450" xmlns="http://www.w3.org/2000/svg" xmlns:xlink="http://www.w3.org/1999/xlink" version="1.1"><rect x="0" y="0" width="900" height="450" fill="#ffffff"></rect><path d="M0 38L21.5 38.5C43 39 86 40 128.8 38.2C171.7 36.3 214.3 31.7 257.2 28.8C300 26 343 25 385.8 30.2C428.7 35.3 471.3 46.7 514.2 48.7C557 50.7 600 43.3 642.8 38C685.7 32.7 728.3 29.3 771.2 27.3C814 25.3 857 24.7 878.5 24.3L900 24L900 0L878.5 0C857 0 814 0 771.2 0C728.3 0 685.7 0 642.8 0C600 0 557 0 514.2 0C471.3 0 428.7 0 385.8 0C343 0 300 0 257.2 0C214.3 0 171.7 0 128.8 0C86 0 43 0 21.5 0L0 0Z" fill="#002021" stroke-linecap="round" stroke-linejoin="miter"></path></svg>